M48
;DRILL file {KiCad (5.0.1-3-g963ef8bb5)} date Friday, March 29, 2019 at 07:41:53 AM
;FORMAT={-:-/ absolute / inch / decimal}
FMAT,2
INCH,TZ
T1C0.0157
T2C0.0236
T3C0.0276
T4C0.0315
T5C0.0354
T6C0.0390
T7C0.0394
T8C0.0400
%
G90
G05
M72
T1
X5.0725Y-4.2525
X5.6775Y-4.63
X5.71Y-5.05
X5.7175Y-4.2825
X5.7225Y-4.475
X6.16Y-5.235
X6.3956Y-4.0213
X6.4195Y-4.1282
X6.4282Y-4.0693
X6.485Y-4.145
X6.525Y-3.2225
X6.525Y-4.0025
X6.6604Y-4.1051
X6.6975Y-3.2025
X6.7124Y-4.1824
X6.74Y-4.1475
X6.78Y-4.0625
X6.8285Y-4.0345
X6.9025Y-3.21
X7.Y-4.1175
X7.09Y-3.005
X7.1025Y-3.21
X7.36Y-3.085
X7.405Y-3.13
T2
X5.815Y-4.85
X5.815Y-4.9
X5.815Y-4.95
X6.005Y-4.415
X6.005Y-4.465
X6.005Y-4.515
X6.005Y-4.6325
X6.005Y-4.6825
X6.005Y-4.7325
X5.815Y-4.415
X5.815Y-4.465
X5.815Y-4.515
X5.815Y-5.0675
X5.815Y-5.1175
X5.815Y-5.1675
X6.005Y-4.1975
X6.005Y-4.2475
X6.005Y-4.2975
X6.005Y-5.0675
X6.005Y-5.1175
X6.005Y-5.1675
X6.005Y-4.85
X6.005Y-4.9
X6.005Y-4.95
X5.815Y-4.6325
X5.815Y-4.6825
X5.815Y-4.7325
X5.815Y-4.1975
X5.815Y-4.2475
X5.815Y-4.2975
T3
X7.31Y-5.33
X7.31Y-5.4284
X4.63Y-6.2791
X4.63Y-6.3775
X5.92Y-5.525
X5.92Y-5.6234
X5.92Y-5.29
X5.92Y-5.3884
X6.265Y-5.71
X6.265Y-5.8084
X6.19Y-4.8391
X6.19Y-4.9375
T4
X5.3065Y-2.7987
X5.3065Y-2.8987
X5.897Y-2.7987
X5.897Y-2.8987
X6.0939Y-2.7987
X6.0939Y-2.8987
X6.875Y-5.145
X6.875Y-5.245
X6.875Y-5.345
X6.875Y-5.445
X6.875Y-5.545
X6.875Y-5.645
X6.875Y-5.745
X6.875Y-5.845
X7.175Y-5.145
X7.175Y-5.245
X7.175Y-5.345
X7.175Y-5.445
X7.175Y-5.545
X7.175Y-5.645
X7.175Y-5.745
X7.175Y-5.845
X6.2907Y-2.7987
X6.2907Y-2.8987
X6.6844Y-2.7987
X6.6844Y-2.8987
X5.49Y-5.0475
X5.59Y-5.0475
X5.7075Y-4.015
X5.8075Y-4.015
X6.29Y-4.24
X6.29Y-4.34
X6.29Y-4.44
X6.29Y-4.54
X6.29Y-4.64
X6.29Y-4.74
X6.29Y-4.84
X6.29Y-4.94
X6.59Y-4.24
X6.59Y-4.34
X6.59Y-4.44
X6.59Y-4.54
X6.59Y-4.64
X6.59Y-4.74
X6.59Y-4.84
X6.59Y-4.94
X5.94Y-3.755
X6.04Y-3.755
X5.49Y-5.3075
X5.59Y-5.3075
X5.94Y-3.625
X6.04Y-3.625
X5.5118Y-6.2205
X5.5118Y-6.3189
X5.1825Y-5.57
X5.2825Y-5.57
X5.1825Y-5.18
X5.2825Y-5.18
X5.1825Y-5.05
X5.2825Y-5.05
X4.9128Y-2.7987
X4.9128Y-2.8987
X5.1096Y-2.7987
X5.1096Y-2.8987
X5.7075Y-3.755
X5.8075Y-3.755
X5.7002Y-2.7987
X5.7002Y-2.8987
X6.1675Y-5.115
X6.2675Y-5.115
X4.3222Y-2.7987
X4.3222Y-2.8987
X6.09Y-5.42
X6.09Y-5.6121
X5.7075Y-3.885
X5.8075Y-3.885
X5.49Y-5.5675
X5.59Y-5.5675
X7.0781Y-2.7987
X7.0781Y-2.8987
X5.7075Y-3.625
X5.8075Y-3.625
X5.49Y-5.4375
X5.59Y-5.4375
X5.94Y-4.015
X6.04Y-4.015
X6.1811Y-6.2205
X6.1811Y-6.3189
X6.37Y-5.115
X6.37Y-5.215
X6.37Y-5.315
X6.37Y-5.415
X6.37Y-5.515
X6.37Y-5.615
X6.37Y-5.715
X6.37Y-5.815
X6.37Y-5.915
X6.37Y-6.015
X6.37Y-6.115
X6.37Y-6.215
X6.37Y-6.315
X6.37Y-6.415
X6.67Y-5.115
X6.67Y-5.215
X6.67Y-5.315
X6.67Y-5.415
X6.67Y-5.515
X6.67Y-5.615
X6.67Y-5.715
X6.67Y-5.815
X6.67Y-5.915
X6.67Y-6.015
X6.67Y-6.115
X6.67Y-6.215
X6.67Y-6.315
X6.67Y-6.415
X5.94Y-3.885
X6.04Y-3.885
X5.1825Y-5.31
X5.2825Y-5.31
X4.7159Y-2.7987
X4.7159Y-2.8987
X5.5033Y-2.7987
X5.5033Y-2.8987
X4.74Y-5.6725
X4.74Y-5.7725
X4.74Y-5.8725
X4.74Y-5.9725
X4.74Y-6.0725
X4.74Y-6.1725
X4.74Y-6.2725
X4.74Y-6.3725
X5.04Y-5.6725
X5.04Y-5.7725
X5.04Y-5.8725
X5.04Y-5.9725
X5.04Y-6.0725
X5.04Y-6.1725
X5.04Y-6.2725
X5.04Y-6.3725
X6.4876Y-2.7987
X6.4876Y-2.8987
X6.8813Y-2.7987
X6.8813Y-2.8987
X7.2675Y-2.79
X7.2675Y-2.89
X5.49Y-5.1775
X5.59Y-5.1775
X5.1825Y-5.44
X5.2825Y-5.44
X4.5191Y-2.7987
X4.5191Y-2.8987
T5
X7.2047Y-2.4803
X7.3047Y-2.4803
X6.0236Y-2.6575
X6.1236Y-2.6575
X5.6299Y-1.2402
X5.7299Y-1.2402
X4.6457Y-2.6575
X4.7457Y-2.6575
X6.4173Y-1.063
X6.5173Y-1.063
X4.4488Y-1.063
X4.5488Y-1.063
X5.0394Y-2.4803
X5.1394Y-2.4803
X6.0236Y-1.4173
X6.1236Y-1.4173
X5.6299Y-2.3031
X5.7299Y-2.3031
X6.811Y-1.7717
X6.911Y-1.7717
X4.252Y-2.4803
X4.352Y-2.4803
X5.0394Y-2.3031
X5.1394Y-2.3031
X7.0079Y-1.9488
X7.1079Y-1.9488
X4.8425Y-2.6575
X4.9425Y-2.6575
X6.811Y-2.4803
X6.911Y-2.4803
X5.6299Y-1.4173
X5.7299Y-1.4173
X5.6299Y-2.4803
X5.7299Y-2.4803
X7.2047Y-1.4173
X7.3047Y-1.4173
X5.6299Y-2.126
X5.7299Y-2.126
X4.252Y-1.7717
X4.352Y-1.7717
X6.811Y-1.5945
X6.911Y-1.5945
X4.4488Y-1.5945
X4.5488Y-1.5945
X5.2362Y-2.6575
X5.3362Y-2.6575
X7.2047Y-1.2402
X7.3047Y-1.2402
X7.0079Y-2.3031
X7.1079Y-2.3031
X6.811Y-1.9488
X6.911Y-1.9488
X4.4488Y-2.3031
X4.5488Y-2.3031
X5.4331Y-2.3031
X5.5331Y-2.3031
X6.4157Y-1.4173
X6.5157Y-1.4173
X6.6142Y-1.7717
X6.7142Y-1.7717
X6.2205Y-1.5945
X6.3205Y-1.5945
X4.8425Y-1.2402
X4.9425Y-1.2402
X5.8268Y-2.4803
X5.9268Y-2.4803
X5.2362Y-1.063
X5.3362Y-1.063
X4.8425Y-1.4173
X4.9425Y-1.4173
X6.0236Y-1.9488
X6.1236Y-1.9488
X5.8252Y-1.063
X5.9252Y-1.063
X6.0236Y-1.7717
X6.1236Y-1.7717
X4.6457Y-1.2402
X4.7457Y-1.2402
X6.2205Y-1.4173
X6.3205Y-1.4173
X4.252Y-2.3031
X4.352Y-2.3031
X6.2205Y-2.3031
X6.3205Y-2.3031
X6.0236Y-1.5945
X6.1236Y-1.5945
X4.8425Y-1.5945
X4.9425Y-1.5945
X5.4331Y-1.2402
X5.5331Y-1.2402
X5.4331Y-1.5945
X5.5331Y-1.5945
X5.2362Y-2.3031
X5.3362Y-2.3031
X5.4331Y-1.9488
X5.5331Y-1.9488
X5.0394Y-1.4173
X5.1394Y-1.4173
X4.6457Y-1.063
X4.7457Y-1.063
X5.2362Y-1.9488
X5.3362Y-1.9488
X7.2047Y-1.7717
X7.3047Y-1.7717
X6.4173Y-1.9488
X6.5173Y-1.9488
X4.252Y-2.126
X4.352Y-2.126
X6.6142Y-1.2402
X6.7142Y-1.2402
X6.2205Y-2.126
X6.3205Y-2.126
X4.252Y-2.6575
X4.352Y-2.6575
X5.8268Y-1.2402
X5.9268Y-1.2402
X6.022Y-1.063
X6.122Y-1.063
X6.4173Y-2.6575
X6.5173Y-2.6575
X5.8268Y-1.7717
X5.9268Y-1.7717
X6.4173Y-1.7717
X6.5173Y-1.7717
X6.811Y-1.063
X6.911Y-1.063
X5.8252Y-2.126
X5.9252Y-2.126
X4.4488Y-1.9488
X4.5488Y-1.9488
X4.8425Y-1.9488
X4.9425Y-1.9488
X5.0394Y-1.063
X5.1394Y-1.063
X6.2205Y-1.9488
X6.3205Y-1.9488
X6.0236Y-2.3031
X6.1236Y-2.3031
X6.811Y-2.6575
X6.911Y-2.6575
X4.6457Y-1.5945
X4.7457Y-1.5945
X7.2047Y-2.3031
X7.3047Y-2.3031
X4.6457Y-2.4803
X4.7457Y-2.4803
X6.2205Y-2.6575
X6.3205Y-2.6575
X6.6142Y-2.4803
X6.7142Y-2.4803
X5.2362Y-1.4173
X5.3362Y-1.4173
X7.2047Y-2.126
X7.3047Y-2.126
X6.6142Y-1.9488
X6.7142Y-1.9488
X6.811Y-2.3031
X6.911Y-2.3031
X4.6457Y-2.3031
X4.7457Y-2.3031
X5.0394Y-2.126
X5.1394Y-2.126
X7.0079Y-1.7717
X7.1079Y-1.7717
X4.8425Y-2.4803
X4.9425Y-2.4803
X4.252Y-1.4173
X4.352Y-1.4173
X7.0079Y-1.4173
X7.1079Y-1.4173
X7.2047Y-1.063
X7.3047Y-1.063
X5.6299Y-1.063
X5.7299Y-1.063
X5.0394Y-1.9488
X5.1394Y-1.9488
X4.252Y-1.5945
X4.352Y-1.5945
X5.6299Y-2.6575
X5.7299Y-2.6575
X6.811Y-1.4173
X6.911Y-1.4173
X4.4488Y-1.4173
X4.5488Y-1.4173
X5.2362Y-2.4803
X5.3362Y-2.4803
X5.4331Y-2.126
X5.5331Y-2.126
X4.4488Y-2.126
X4.5488Y-2.126
X7.0079Y-1.5945
X7.1079Y-1.5945
X4.8425Y-2.3031
X4.9425Y-2.3031
X7.0079Y-1.2402
X7.1079Y-1.2402
X5.2362Y-1.5945
X5.3362Y-1.5945
X5.6299Y-1.9488
X5.7299Y-1.9488
X6.4173Y-1.2402
X6.5173Y-1.2402
X7.2047Y-2.6575
X7.3047Y-2.6575
X6.6142Y-1.5945
X6.7142Y-1.5945
X6.6142Y-2.126
X6.7142Y-2.126
X6.6142Y-1.4173
X6.7142Y-1.4173
X4.8425Y-1.063
X4.9425Y-1.063
X6.0236Y-1.2402
X6.1236Y-1.2402
X5.8252Y-1.4173
X5.9252Y-1.4173
X5.0394Y-2.6575
X5.1394Y-2.6575
X6.6142Y-2.3031
X6.7142Y-2.3031
X5.4331Y-2.4803
X5.5331Y-2.4803
X6.2205Y-1.2402
X6.3205Y-1.2402
X5.6299Y-1.7717
X5.7299Y-1.7717
X5.4331Y-2.6575
X5.5331Y-2.6575
X4.4488Y-2.6575
X4.5488Y-2.6575
X7.2047Y-1.5945
X7.3047Y-1.5945
X6.6142Y-1.063
X6.7142Y-1.063
X4.252Y-1.063
X4.352Y-1.063
X4.252Y-1.9488
X4.352Y-1.9488
X6.4173Y-2.4803
X6.5173Y-2.4803
X5.4331Y-1.063
X5.5331Y-1.063
X7.0079Y-2.4803
X7.1079Y-2.4803
X6.811Y-2.126
X6.911Y-2.126
X7.0079Y-2.126
X7.1079Y-2.126
X4.4488Y-2.4803
X4.5488Y-2.4803
X6.4157Y-2.3031
X6.5157Y-2.3031
X5.8268Y-1.5945
X5.9268Y-1.5945
X5.8268Y-2.6575
X5.9268Y-2.6575
X6.4173Y-1.5945
X6.5173Y-1.5945
X6.6142Y-2.6575
X6.7142Y-2.6575
X5.8268Y-1.9488
X5.9268Y-1.9488
X6.2205Y-1.7717
X6.3205Y-1.7717
X5.2362Y-1.7717
X5.3362Y-1.7717
X4.4488Y-1.7717
X4.5488Y-1.7717
X4.252Y-1.2402
X4.352Y-1.2402
X4.8425Y-1.7717
X4.9425Y-1.7717
X5.2362Y-2.126
X5.3362Y-2.126
X6.022Y-2.126
X6.122Y-2.126
X4.6457Y-1.4173
X4.7457Y-1.4173
X6.4173Y-2.126
X6.5173Y-2.126
X5.0394Y-1.7717
X5.1394Y-1.7717
X6.2189Y-2.4803
X6.3189Y-2.4803
X5.2362Y-1.2402
X5.3362Y-1.2402
X7.2047Y-1.9488
X7.3047Y-1.9488
X6.0236Y-2.4803
X6.1236Y-2.4803
X5.0394Y-1.5945
X5.1394Y-1.5945
X4.6457Y-2.126
X4.7457Y-2.126
X6.2205Y-1.063
X6.3205Y-1.063
X7.0079Y-2.6575
X7.1079Y-2.6575
X4.6457Y-1.9488
X4.7457Y-1.9488
X6.811Y-1.2402
X6.911Y-1.2402
X5.8268Y-2.3031
X5.9268Y-2.3031
X4.4488Y-1.2402
X4.5488Y-1.2402
X5.4331Y-1.4173
X5.5331Y-1.4173
X5.4331Y-1.7717
X5.5331Y-1.7717
X4.8425Y-2.126
X4.9425Y-2.126
X5.0394Y-1.2402
X5.1394Y-1.2402
X7.0079Y-1.063
X7.1079Y-1.063
X5.6299Y-1.5945
X5.7299Y-1.5945
X4.6457Y-1.7717
X4.7457Y-1.7717
T6
X5.1969Y-3.5433
X5.1969Y-3.7205
X5.4528Y-3.5433
X5.4528Y-3.7205
X6.7717Y-3.4055
X6.7717Y-3.5827
X7.0276Y-3.4055
X7.0276Y-3.5827
X4.8031Y-3.937
X4.8031Y-4.1142
X5.0591Y-3.937
X5.0591Y-4.1142
X5.5512Y-3.1102
X5.5512Y-3.2874
X5.8071Y-3.1102
X5.8071Y-3.2874
X5.9449Y-3.1102
X5.9449Y-3.2874
X6.2008Y-3.1102
X6.2008Y-3.2874
X4.8031Y-3.1496
X4.8031Y-3.3268
X5.0591Y-3.1496
X5.0591Y-3.3268
X4.4094Y-3.5433
X4.4094Y-3.7205
X4.6654Y-3.5433
X4.6654Y-3.7205
X6.378Y-3.7008
X6.378Y-3.878
X6.6339Y-3.7008
X6.6339Y-3.878
T7
X5.7874Y-6.4173
X5.8874Y-6.4173
X5.748Y-6.2598
X5.848Y-6.2598
X5.948Y-6.2598
T8
X5.748Y-5.8843
X5.748Y-5.9843
X5.848Y-5.8843
X5.848Y-5.9843
X5.948Y-5.8843
X5.948Y-5.9843
T0
M30
